# AST/ASF file generated using VICON BodyLanguage
# -----------------------------------------------
:version 1.10
:name VICON
:units
  mass 1.0
  length 0.45
  angle deg
:documentation
   .ast/.asf automatically generated from VICON data using
   VICON BodyBuilder and BodyLanguage model FoxedUp or BRILLIANT.MOD
:root
   order TX TY TZ RX RY RZ
   axis XYZ
   position 0 0 0  
   orientation 0 0 0 
:bonedata
  begin
     id 1 
     name lhipjoint
     direction 0.630082 -0.636569 0.44472 
     length 2.82754 
     axis 0 0 0  XYZ
  end
  begin
     id 2 
     name lfemur
     direction 0.34202 -0.939693 0  
     length 7.26371  
     axis 0 0 20  XYZ
    dof rx ry rz
    limits (-160.0 20.0)
           (-70.0 70.0)
           (-60.0 70.0)
  end
  begin
     id 3 
     name ltibia
     direction 0.34202 -0.939693 0   
     length 7.88616   
     axis 0 0 20   XYZ
    dof rx
    limits (-10.0 170.0)
  end
  begin
     id 4 
     name lfoot
     direction 0.0603448 -0.165796 0.984312   
     length 1.77861   
     axis -90 7.62852e-016 20   XYZ
    dof rx rz
    limits (-45.0 90.0)
           (-70.0 20.0)
  end
  begin
     id 5 
     name ltoes
     direction 1.53577e-011 -4.21876e-011 1   
     length 0.902235   
     axis -90 7.62852e-016 20   XYZ
    dof rx
    limits (-90.0 20.0)
  end
  begin
     id 6 
     name rhipjoint
     direction -0.656778 -0.61817 0.431866   
     length 2.9117  
     axis 0 0 0  XYZ 
  end
  begin
     id 7 
     name rfemur
     direction -0.34202 -0.939693 0   
     length 6.81603   
     axis 0 0 -20   XYZ
    dof rx ry rz
    limits (-160.0 20.0)
           (-70.0 70.0)
           (-70.0 60.0)
  end
  begin
     id 8 
     name rtibia
     direction -0.34202 -0.939693 0   
     length 8.05997   
     axis 0 0 -20   XYZ
    dof rx
    limits (-10.0 170.0)
 end
 begin
     id 9 
     name rfoot
     direction -0.0862404 -0.236944 0.967688   
     length 1.84899  
     axis -90 -7.62852e-016 -20   XYZ
    dof rx rz
    limits (-45.0 90.0)
           (-20.0 70.0)
  end
  begin
     id 10 
     name rtoes
     direction -1.53561e-011 -4.21798e-011 1   
     length 0.931579   
     axis -90 -7.62852e-016 -20   XYZ
    dof rx
    limits (-90.0 20.0)
  end
  begin
     id 11 
     name lowerback
     direction -0.0110203 0.991769 -0.127564   
     length 2.05686   
     axis 0 0 0   XYZ
    dof rx ry rz
    limits (-20.0 45.0)
           (-30.0 30.0)
           (-30.0 30.0)
  end
  begin
     id 12 
     name upperback
     direction 0.0109719 0.99993 -0.00432479   
     length 2.06234   
     axis 0 0 0   XYZ
    dof rx ry rz
    limits (-20.0 45.0)
           (-30.0 30.0)
           (-30.0 30.0)
  end
  begin
     id 13 
     name thorax
     direction 0.0173308 0.998351 0.0547306   
     length 2.09856   
     axis 0 0 0   XYZ
    dof rx ry rz
    limits (-20.0 45.0)
           (-30.0 30.0)
           (-30.0 30.0)
  end
  begin
     id 14 
     name lowerneck
     direction -0.0311736 0.989033 0.144366   
     length 1.98151   
     axis 0 0 0   XYZ
    dof rx ry rz
    limits (-20.0 45.0)
           (-30.0 30.0)
           (-30.0 30.0)
  end
  begin
     id 15 
     name upperneck
     direction 0.0421057 0.975772 -0.214698   
     length 2.01457   
     axis 0 0 0   XYZ
    dof rx ry rz
    limits (-20.0 45.0)
           (-30.0 30.0)
           (-30.0 30.0)
  end
  begin
     id 16
     name head
     direction 0.0136911 0.995958 -0.0887718  
     length 2.03562  
     axis 0 0 0   XYZ
    dof rx ry rz
    limits (-20.0 45.0)
           (-30.0 30.0)
           (-30.0 30.0)
  end
  begin
     id 17 
     name lclavicle
     direction 0.915335 0.396201 0.0720134  
     length 4.16217  
     axis 0 0 0   XYZ
    dof ry rz
    limits (-20.0 10.0)
           (0.0 20.0)
  end
  begin
     id 18 
     name lhumerus
     direction 1 -4.48965e-011 6.383e-018   
     length 4.93042   
     axis -180 -30 -90   XYZ
    dof rx ry rz
    limits (-60.0 90.0)
           (-90.0 90.0)
           (-90.0 90.0)
  end
  begin
     id 19
     name lradius
     direction 1 -4.48972e-011 8.8689e-027   
     length 3.68177   
     axis -180 -30 -90   XYZ
    dof rx
    limits (-10.0 170.0)
  end
  begin
     id 20
     name lwrist
     direction 1 -4.48953e-011 1.17971e-026   
     length 1.84089   
     axis -7.69454e-015 90 90   XYZ
    dof ry
    limits (-180.0 0.0)
 end
  begin
     id 21 
     name lhand
     direction 1 -4.49027e-011 2.35802e-026   
     length 0.721479   
     axis -1.50533e-014 90 90   XYZ
    dof rx rz
    limits (-90.0 90.0)
           (-45.0 45.0)
  end
  begin
     id 22 
     name lfingers
     direction 1 -4.48915e-011 4.72027e-026   
     length 0.581675   
     axis -3.01059e-014 90 90   XYZ
    dof rx
    limits (0.0 90.0)
  end
  begin
     id 23
     name lthumb
     direction 0.707107 -6.34948e-011 0.707107   
     length 0.835172   
     axis -90 45 -5.12164e-014   XYZ
    dof rx rz
    limits (-45.0 45.0)
           (-45.0 45.0)
  end
  begin
     id 24 
     name rclavicle
     direction -0.882781 0.469197 0.0234974   
     length 3.95647  
     axis 0 0 0   XYZ 
    dof ry rz
    limits (-10.0 20.0)
           (-20.0 0.0)
  end
  begin
     id 25 
     name rhumerus
     direction -1 -4.48965e-011 -1.54906e-018  
     length 5.07905   
     axis -180 30 90   XYZ
    dof rx ry rz
    limits (-90.0 60.0)
           (-90.0 90.0)
           (-90.0 90.0)
  end
  begin
     id 26 
     name rradius
     direction -1 -4.48972e-011 5.47489e-027   
     length 3.54394   
     axis -180 30 90   XYZ
    dof rx
    limits (-10.0 170.0)
  end
  begin
     id 27 
     name rwrist
     direction -1 -4.48955e-011 1.17969e-026   
     length 1.77197   
     axis -7.69454e-015 -90 -90   XYZ
    dof ry
    limits (-180.0 0.0)
  end
  begin
     id 28
     name rhand
     direction -1 -4.48982e-011 2.35888e-026   
     length 0.681156   
     axis -1.50533e-014 -90 -90   XYZ
    dof rx rz
    limits (-90.0 90.0)
           (-45.0 45.0)
  end
  begin
     id 29
     name rfingers
     direction -1 -4.48955e-011 4.71877e-026   
     length 0.549165   
     axis -3.01059e-014 -90 -90   XYZ
    dof rx
    limits (0.0 90.0)
  end
  begin
     id 30
     name rthumb
     direction -0.707107 -6.3491e-011 0.707107   
     length 0.788495   
     axis -90 -45 5.12164e-014   XYZ
    dof rx rz
    limits (-45.0 45.0)
           (-45.0 45.0)
  end
:hierarchy
  begin
    root lhipjoint rhipjoint lowerback
    lhipjoint lfemur
    lfemur ltibia
    ltibia lfoot
    lfoot ltoes
    rhipjoint rfemur
    rfemur rtibia
    rtibia rfoot
    rfoot rtoes
    lowerback upperback
    upperback thorax
    thorax lowerneck lclavicle rclavicle
    lowerneck upperneck
    upperneck head
    lclavicle lhumerus
    lhumerus lradius
    lradius lwrist
    lwrist lhand lthumb
    lhand lfingers
    rclavicle rhumerus
    rhumerus rradius
    rradius rwrist
    rwrist rhand rthumb
    rhand rfingers
  end

#!OML:ASF H:\Bending\Project 1\Capture day 1\Session 1\Subject.ASF
:FULLY-SPECIFIED
:DEGREES
384
root -9.9416 17.9008 -16.5634 -64.0857 87.4623 -70.0216
lowerback 4.88018 0.196448 0.0212597
upperback -2.72917 0.378469 1.7805
thorax -5.58366 0.232157 1.80058
lowerneck -22.5969 -6.07662 -8.08869
upperneck 29.0295 -7.87581 7.43853
head 14.4242 -3.10622 2.92466
rclavicle -8.19987e-016 -1.25234e-014
rhumerus -34.6637 -3.14612 -77.6783
rradius 35.4549
rwrist 4.64712
rhand -17.5979 -25.9991
rfingers 7.12502
rthumb 8.65835 -55.8015
lclavicle -8.19987e-016 -1.25234e-014
lhumerus -31.4133 5.41715 88.1616
lradius 36.5938
lwrist 28.0637
lhand -30.3639 8.91642
lfingers 7.12502
lthumb -3.66886 38.8646
rfemur 3.72149 2.55433 13.3612
rtibia -4.77083e-015
rfoot -10.6732 -16.9685
rtoes 4.36811
lfemur -10.2464 -21.768 -9.46655
ltibia 24.7324
lfoot -27.5415 16.9435
ltoes -9.46533
385
root -9.95516 17.8962 -16.5688 -64.8817 87.4955 -70.6054
lowerback 4.87212 0.188953 0.0141649
upperback -2.71655 0.365174 1.74483
thorax -5.56508 0.224714 1.76867
lowerneck -22.5642 -6.09236 -8.09043
upperneck 29.1943 -7.89064 7.39546
head 14.4894 -3.11538 2.90952
rclavicle -1.37907e-015 -1.07344e-014
rhumerus -34.4198 -3.35269 -77.57
rradius 35.3201
rwrist 4.34497
rhand -18.03 -26.3555
rfingers 7.12502
rthumb 8.24139 -56.1748
lclavicle -1.37907e-015 -1.07344e-014
lhumerus -30.9542 5.00574 88.526
lradius 37.5821
lwrist 28.3799
lhand -30.4693 8.77384
lfingers 7.12502
lthumb -3.77069 38.7202
rfemur 3.94737 2.54007 13.3188
rtibia -9.54166e-015
rfoot -10.8015 -16.9319
rtoes 5.00922
lfemur -10.1268 -21.6836 -9.56413
ltibia 24.8429
lfoot -27.4693 16.7835
ltoes -9.52571
386
root -9.96938 17.8923 -16.5737 -65.1184 87.5372 -70.6426
lowerback 4.87735 0.19874 0.0225129
upperback -2.71248 0.375307 1.68995
thorax -5.56352 0.227961 1.70588
lowerneck -22.5289 -6.11316 -8.12209
upperneck 29.3439 -7.90965 7.3788
head 14.551 -3.12635 2.90917
rclavicle 1.73315e-015 2.38542e-015
rhumerus -34.2195 -3.62771 -77.4573
rradius 35.1603
rwrist 4.11308
rhand -18.4589 -26.5925
rfingers 7.12502
rthumb 7.82744 -56.4276
lclavicle 1.73315e-015 2.38542e-015
lhumerus -30.5687 4.45586 88.8842
lradius 38.4418
lwrist 28.5823
lhand -30.4866 8.69657
lfingers 7.12502
lthumb -3.78741 38.6427
rfemur 4.14811 2.54301 13.2619
rtibia -6.36111e-015
rfoot -10.8903 -16.9129
rtoes 5.52518
lfemur -9.99985 -21.5757 -9.67624
ltibia 24.9136
lfoot -27.3776 16.6339
ltoes -9.56071
387
root -9.98382 17.8885 -16.5779 -64.7128 87.5615 -70.0442
lowerback 4.89559 0.214534 0.0339422
upperback -2.71365 0.394346 1.64102
thorax -5.5752 0.235748 1.64671
lowerneck -22.4798 -6.11541 -8.15429
upperneck 29.4574 -7.9004 7.36149
head 14.5908 -3.1266 2.91352
rclavicle 5.37961e-015 4.17448e-015
rhumerus -34.0484 -3.91023 -77.3468
rradius 34.9654
rwrist 4.02242
rhand -18.7517 -26.6703
rfingers 7.12502
rthumb 7.54478 -56.5158
lclavicle 5.37961e-015 4.17448e-015
lhumerus -30.2805 3.81193 89.2218
lradius 39.2025
lwrist 28.7296
lhand -30.4464 8.66996
lfingers 7.12502
lthumb -3.74853 38.6167
rfemur 4.32571 2.57757 13.219
rtibia -1.27222e-014
rfoot -10.9194 -16.9164
rtoes 5.7463
lfemur -9.85968 -21.452 -9.78112
ltibia 24.9629
lfoot -27.2942 16.5104
ltoes -9.61588
388
root -9.99776 17.8845 -16.5809 -63.7721 87.5507 -68.9166
lowerback 4.91688 0.22452 0.0320439
upperback -2.7161 0.406397 1.61937
thorax -5.59009 0.241278 1.62409
lowerneck -22.4147 -6.08381 -8.15868
upperneck 29.5251 -7.84104 7.31333
head 14.5982 -3.10827 2.90927
rclavicle 1.1865e-015 6.36111e-015
rhumerus -33.8983 -4.126 -77.2536
rradius 34.7452
rwrist 4.07034
rhand -18.8613 -26.619
rfingers 7.12502
rthumb 7.43902 -56.4682
lclavicle 1.1865e-015 6.36111e-015
lhumerus -30.0989 3.13089 89.5278
lradius 39.882
lwrist 28.8686
lhand -30.3907 8.65994
lfingers 7.12502
lthumb -3.69476 38.6077
rfemur 4.48106 2.64692 13.2112
rtibia 1.90833e-014
rfoot -10.8839 -16.9387
rtoes 5.60136
lfemur -9.70654 -21.3222 -9.85923
ltibia 25.0023
lfoot -27.2308 16.4277
ltoes -9.76474
389
root -10.0105 17.8807 -16.5823 -62.5954 87.5039 -67.5655
lowerback 4.92479 0.220566 0.00567252
upperback -2.71689 0.400034 1.63292
thorax -5.5956 0.23945 1.65364
lowerneck -22.3425 -6.01744 -8.12039
upperneck 29.5548 -7.72928 7.21528
head 14.5766 -3.07105 2.88643
rclavicle -7.26806e-016 3.97569e-015
rhumerus -33.771 -4.22025 -77.1962
rradius 34.5265
rwrist 4.19155
rhand -18.8292 -26.5063
rfingers 7.12502
rthumb 7.47005 -56.3544
lclavicle -7.26806e-016 3.97569e-015
lhumerus -30.0153 2.47153 89.795
lradius 40.481
lwrist 29.0201
lhand -30.3596 8.63807
lfingers 7.12502
lthumb -3.66473 38.5863
rfemur 4.6131 2.74021 13.2424
rtibia 1.90833e-014
rfoot -10.8016 -16.9673
rtoes 5.17754
lfemur -9.54888 -21.1997 -9.90117
ltibia 25.0338
lfoot -27.1819 16.3959
ltoes -10.065
390
root -10.0217 17.8775 -16.5821 -61.5154 87.4373 -66.3343
lowerback 4.90358 0.200374 -0.0447262
upperback -2.7152 0.37157 1.67348
thorax -5.58159 0.228182 1.72694
lowerneck -22.2799 -5.92875 -8.04416
upperneck 29.5694 -7.58184 7.06836
head 14.5424 -3.02158 2.84327
rclavicle -3.24267e-015 -7.35503e-015
rhumerus -33.6766 -4.18571 -77.1864
rradius 34.3398
rwrist 4.29918
rhand -18.7431 -26.3966
rfingers 7.12502
rthumb 7.55312 -56.2417
lclavicle -3.24267e-015 -7.35503e-015
lhumerus -30.0079 1.88853 90.0186
lradius 40.9824
lwrist 29.1748
lhand -30.3751 8.59884
lfingers 7.12502
lthumb -3.67968 38.5468
rfemur 4.71974 2.83697 13.2979
rtibia -2.54444e-014
rfoot -10.7067 -16.9862
rtoes 4.68278
lfemur -9.40052 -21.1027 -9.91195
ltibia 25.0516
lfoot -27.1339 16.4186
ltoes -10.519
391
root -10.0314 17.8754 -16.5808 -60.7209 87.3767 -65.4209
lowerback 4.84465 0.167078 -0.10776
upperback -2.71235 0.324874 1.72199
thorax -5.54426 0.208458 1.81732
lowerneck -22.2438 -5.8371 -7.95037
upperneck 29.5964 -7.42556 6.89142
head 14.5166 -2.96999 2.78627
rclavicle 1.32937e-015 -1.72943e-014
rhumerus -33.6288 -4.06919 -77.2212
rradius 34.2036
rwrist 4.33319
rhand -18.6761 -26.3196
rfingers 7.12502
rthumb 7.61777 -56.1624
lclavicle 1.32937e-015 -1.72943e-014
lhumerus -30.0498 1.42784 90.1944
lradius 41.3597
lwrist 29.3047
lhand -30.4334 8.5608
lfingers 7.12502
lthumb -3.73599 38.5078
rfemur 4.79915 2.91618 13.3519
rtibia -1.90833e-014
rfoot -10.6323 -16.9864
rtoes 4.33617
lfemur -9.27484 -21.0517 -9.90906
ltibia 25.0486
lfoot -27.0764 16.494
ltoes -11.0706
392
root -10.0398 17.8744 -16.5791 -60.2 87.3441 -64.8154
lowerback 4.75055 0.1274 -0.165936
upperback -2.71036 0.269128 1.75875
thorax -5.48711 0.183677 1.89345
lowerneck -22.2421 -5.76059 -7.86617
upperneck 29.6549 -7.2861 6.71266
head 14.5149 -2.92575 2.72709
rclavicle -2.59973e-015 6.55989e-015
rhumerus -33.6371 -3.95141 -77.2807
rradius 34.1142
rwrist 4.2894
rhand -18.6472 -26.2622
rfingers 7.12502
rthumb 7.64567 -56.104
lclavicle -2.59973e-015 6.55989e-015
lhumerus -30.1177 1.12185 90.3195
lradius 41.5867
lwrist 29.3799
lhand -30.5093 8.55189
lfingers 7.12502
lthumb -3.80924 38.4976
rfemur 4.85262 2.96624 13.3799
rtibia 7.95139e-015
rfoot -10.5937 -16.971
rtoes 4.25193
lfemur -9.17718 -21.066 -9.91515
ltibia 25.0215
lfoot -27.0123 16.6214
ltoes -11.6349
393
root -10.0473 17.8743 -16.5778 -59.7873 87.3472 -64.3443
lowerback 4.63409 0.0891903 -0.20332
upperback -2.71016 0.215439 1.77255
thorax -5.41871 0.158513 1.93358
lowerneck -22.2696 -5.70984 -7.8129
upperneck 29.7458 -7.17926 6.55649
head 14.5404 -2.89466 2.67643
rclavicle -9.90817e-016 -4.17448e-015
rhumerus -33.7033 -3.90835 -77.336
rradius 34.0463
rwrist 4.21569
rhand -18.6205 -26.1838
rfingers 7.12502
rthumb 7.67149 -56.0246
lclavicle -9.90817e-016 -4.17448e-015
lhumerus -30.1984 0.985775 90.3938
lradius 41.6461
lwrist 29.3818
lhand -30.5705 8.59032
lfingers 7.12502
lthumb -3.8684 38.535
rfemur 4.8862 2.99014 13.3702
rtibia -1.59028e-015
rfoot -10.5818 -16.9548
rtoes 4.38154
lfemur -9.10055 -21.1596 -9.94894
ltibia 24.9748
lfoot -26.9608 16.801
ltoes -12.1225
394
root -10.0539 17.8741 -16.5775 -59.2623 87.3758 -63.77
lowerback 4.51427 0.0591078 -0.210549
upperback -2.70995 0.173512 1.76482
thorax -5.34849 0.137521 1.93309
lowerneck -22.3101 -5.68592 -7.79757
upperneck 29.8519 -7.10829 6.43462
head 14.5829 -2.87787 2.63944
rclavicle 1.04673e-015 1.19271e-014
rhumerus -33.821 -3.97494 -77.3617
rradius 33.965
rwrist 4.18236
rhand -18.5366 -26.045
rfingers 7.12502
rthumb 7.7524 -55.8829
lclavicle 1.04673e-015 1.19271e-014
lhumerus -30.2891 1.0153 90.4212
lradius 41.5336
lwrist 29.308
lhand -30.5943 8.67267
lfingers 7.12502
lthumb -3.89132 38.6169
rfemur 4.91191 3.00376 13.3288
rtibia 4.77083e-015
rfoot -10.5716 -16.9558
rtoes 4.5521
lfemur -9.02547 -21.3395 -10.0182
ltibia 24.9188
lfoot -26.9529 17.0345
ltoes -12.4658
